# xmcd
#
# Track frame offsets:
#	150
#	13122
#	28210
#	52925
#	68337
#	88859
#	100001
#	128931
#	145562
#	171678
#	185261
#
# Disc length: 2952 seconds
#
# Revision: 0
# Processed by: cddbd v1.4PL0 Copyright (c) Steve Scherf et al.
# Submitted via: dBpowerAMP V4.0
#
DISCID=8f0b860b
DTITLE=Geoff Achison - Each Long Day
DYEAR=1900
DGENRE=Blues
TTITLE0=If the Washing Don't Get You the Rinsing Will
TTITLE1=I Didn't Know
TTITLE2=Help Me
TTITLE3=Wrapped Up In Love
TTITLE4=In the Midnight Hour
TTITLE5=What'd You Hope to Gain
TTITLE6=Lights Are On But Nobody's Home
TTITLE7=Jorma's Ranch
TTITLE8=The Letter
TTITLE9=Can't Get You Off My Mind
TTITLE10=Each Long Day
EXTD=
EXTT0=
EXTT1=
EXTT2=
EXTT3=
EXTT4=
EXTT5=
EXTT6=
EXTT7=
EXTT8=
EXTT9=
EXTT10=
PLAYORDER=
